<svg width="46" height="46" viewBox="0 0 46 46" fill="none" xmlns="http://www.w3.org/2000/svg">
<g id="Group 18">
<path id="Circle" fill-rule="evenodd" clip-rule="evenodd" d="M13.4181 32.5819C5.78259 31.1678 0 24.4735 0 16.4286C0 7.35532 7.35532 0 16.4286 0C24.4735 0 31.1678 5.78259 32.5819 13.4181C31.6059 13.2373 30.5997 13.1428 29.5714 13.1428C20.4982 13.1428 13.1428 20.4982 13.1428 29.5714C13.1428 30.5997 13.2373 31.6059 13.4181 32.5819Z" fill="#1570EF"/>
<path id="Circle_2" fill-rule="evenodd" clip-rule="evenodd" d="M16.4286 32.857C25.5018 32.857 32.8571 25.5017 32.8571 16.4285C32.8571 15.4002 32.7627 14.3939 32.5819 13.418C40.2174 14.832 46 21.5264 46 29.5713C46 38.6446 38.6447 45.9999 29.5714 45.9999C21.5265 45.9999 14.8321 40.2173 13.4181 32.5818C14.3941 32.7625 15.4003 32.857 16.4286 32.857Z" fill="#2E90FA"/>
</g>
</svg>
