<svg width="44" height="44" viewBox="0 0 44 44" fill="none" xmlns="http://www.w3.org/2000/svg">
<g id="Logomark">
<path id="Shape" d="M14.778 17.4497C20.5389 14.6945 25.0474 10.019 27.6357 4.17457C25.9658 2.42125 23.7951 1.16888 21.4573 0.417457L20.2049 0C20.1214 0.166983 20.0379 0.417467 20.0379 0.58445C18.0342 6.26187 13.9431 10.8539 8.43264 13.4421C4.59203 15.2789 1.75332 18.6186 0.417457 22.6262L0 23.8786C0.166983 23.962 0.417461 24.0455 0.584444 24.0455C2.17078 24.63 3.75712 25.3814 5.25996 26.2998C7.34725 22.5427 10.6869 19.37 14.778 17.4497Z" fill="#087443"/>
<path id="Shape_2" d="M38.9905 17.7837C35.9013 22.4592 31.6432 26.2163 26.3833 28.7211C22.1252 30.7249 18.869 34.482 17.3662 38.9905L16.9487 40.4099C18.5351 41.8292 20.4554 42.9146 22.5427 43.5826L23.795 44C23.8785 43.833 23.962 43.5826 23.962 43.4156C25.9658 37.7382 30.0569 33.1461 35.5673 30.5579C39.4079 28.7211 42.3301 25.3814 43.5825 21.3738L44 20.1215C42.2466 19.6205 40.5768 18.7856 38.9905 17.7837Z" fill="#16B364"/>
<path id="Shape_3" d="M13.6091 36.0683C15.6964 31.0588 19.537 26.9677 24.463 24.63C28.9715 22.4592 32.7287 19.1195 35.3169 15.0285C33.3966 13.1916 31.8102 11.1044 30.6414 8.59961C27.5522 14.277 22.7097 18.8691 16.7818 21.7078C13.3586 23.2941 10.6034 26.0493 8.93359 29.389C10.7704 31.1423 12.2733 33.3131 13.4421 35.7343C13.4421 35.7343 13.5256 35.9013 13.6091 36.0683Z" fill="#099250"/>
</g>
</svg>
