<svg width="45" height="45" viewBox="0 0 45 45" fill="none" xmlns="http://www.w3.org/2000/svg">
<g id="Logomark">
<path id="Shape" d="M12.1013 2.54214L17.3668 22.1932V0.588411C17.7843 0.49098 18.2063 0.405175 18.6324 0.331356V22.1953L24.5547 0.0927734C24.9815 0.131411 25.4049 0.181967 25.8245 0.244106L19.8544 22.5246L31.7213 1.97054C32.1079 2.14446 32.4887 2.32898 32.8634 2.52372L20.9522 23.1545L37.9569 6.14977C38.2635 6.4397 38.5619 6.73814 38.8518 7.04474L21.8446 24.052L42.4778 12.1394C42.6725 12.514 42.857 12.8949 43.0308 13.2815L22.4818 25.1455L44.7563 19.177C44.8184 19.5966 44.8689 20.02 44.9076 20.4468L22.8053 26.369L44.6686 26.369C44.5948 26.7951 44.509 27.2171 44.4115 27.6347L22.802 27.6347L42.4569 32.9012C42.255 33.2877 42.0423 33.6676 41.819 34.0405L22.48 28.8587L38.6325 38.1843C38.3268 38.4988 38.0119 38.8044 37.6883 39.1006L21.8486 29.9555L33.8342 41.9412C33.4551 42.1627 33.0689 42.3734 32.6761 42.5729L20.9523 30.8492L28.6339 44.154C28.2133 44.2729 27.7877 44.3798 27.3575 44.4745L19.8552 31.4801L23.4724 44.9796C23.15 44.9933 22.8258 45.0002 22.5 45.0002C22.3888 45.0002 22.2778 44.9994 22.167 44.9978L18.6324 31.8066V44.6691C18.2063 44.5952 17.7843 44.5094 17.3668 44.412V31.8087L14.2502 43.4397C13.8527 43.283 13.4608 43.1152 13.0747 42.9369L16.1438 31.4828L10.3825 41.4618C10.0258 41.2334 9.67598 40.9952 9.33342 40.7475L15.0495 30.8471L7.04453 38.852C6.73793 38.5621 6.43948 38.2637 6.14956 37.9571L14.152 29.9547L4.25433 35.6691C4.00667 35.3266 3.76842 34.9768 3.53996 34.6201L13.5236 28.8561L2.06387 31.9267C1.8855 31.5406 1.71775 31.1487 1.56098 30.7512L13.192 27.6347L0.588486 27.6347C0.491031 27.2171 0.405201 26.7951 0.331357 26.369L13.1886 26.369L0.00245215 22.8358C0.00081927 22.7241 0 22.6123 0 22.5002C0 22.1753 0.00688755 21.852 0.0205246 21.5304L13.5218 25.148L0.525295 17.6445C0.619928 17.2143 0.726873 16.7887 0.845741 16.3681L14.156 24.0528L2.42728 12.3241C2.62682 11.9313 2.83755 11.5451 3.05905 11.166L15.0496 23.1566L5.9009 7.31054C6.19714 6.98699 6.50272 6.67213 6.8172 6.36638L16.1446 22.5218L10.9619 3.17985C11.3348 2.95665 11.7148 2.74395 12.1013 2.54214Z" fill="#6927DA"/>
</g>
</svg>
