<svg width="44" height="45" viewBox="0 0 44 45" fill="none" xmlns="http://www.w3.org/2000/svg">
<g id="Logomark">
<circle id="Shape" cx="22" cy="22.25" r="20.5" stroke="white" stroke-width="3"/>
<path id="Shape_2" d="M30.1318 30.3814C25.9924 34.5208 21.3029 37.223 17.1265 38.297C12.9124 39.3806 9.51577 38.7568 7.50436 36.7454C5.49296 34.734 4.86917 31.3374 5.95279 27.1233C7.02672 22.9469 9.72893 18.2574 13.8683 14.118C18.0077 9.97859 22.6972 7.27638 26.8736 6.20245C31.0877 5.11883 34.4843 5.74262 36.4957 7.75402C38.5071 9.76543 39.1309 13.1621 38.0473 17.3762C36.9734 21.5525 34.2712 26.242 30.1318 30.3814Z" stroke="white" stroke-width="3"/>
<path id="Shape_3" d="M30.1314 14.118C34.2708 18.2574 36.973 22.9469 38.047 27.1233C39.1306 31.3374 38.5068 34.734 36.4954 36.7454C34.484 38.7568 31.0874 39.3806 26.8733 38.297C22.6969 37.223 18.0074 34.5208 13.868 30.3814C9.72859 26.242 7.02638 21.5525 5.95245 17.3761C4.86883 13.162 5.49262 9.76542 7.50402 7.75402C9.51543 5.74261 12.9121 5.11882 17.1262 6.20244C21.3025 7.27637 25.992 9.97858 30.1314 14.118Z" stroke="white" stroke-width="3"/>
</g>
</svg>
